<svg width="20" height="20" viewBox="0 0 20 20" fill="none" xmlns="http://www.w3.org/2000/svg"><path opacity=".4" d="M7.777 13.833a.58.58 0 0 1 .44.174c.115.115.172.25.172.436v4.446a.58.58 0 0 1-.173.438.57.57 0 0 1-.437.173H1.111a.57.57 0 0 1-.437-.173.56.56 0 0 1-.163-.308l-.011-.13v-4.444a.57.57 0 0 1 .173-.436.56.56 0 0 1 .307-.163l.132-.012zM18.89 9.389c.188 0 .323.059.438.174s.173.249.173.436v8.89a.58.58 0 0 1-.174.438.57.57 0 0 1-.436.173h-6.667a.57.57 0 0 1-.438-.173.56.56 0 0 1-.163-.308l-.01-.131V10c0-.189.058-.322.172-.437a.56.56 0 0 1 .308-.163l.132-.011zM7.777.5a.58.58 0 0 1 .44.174c.115.115.172.25.172.436V10a.58.58 0 0 1-.173.438.57.57 0 0 1-.437.173H1.111a.57.57 0 0 1-.437-.173.56.56 0 0 1-.163-.307L.5 9.999V1.111C.5.923.558.788.673.674A.56.56 0 0 1 .98.51L1.112.5zM18.89.5c.188 0 .323.059.438.174s.173.25.173.436v4.446a.58.58 0 0 1-.174.438.57.57 0 0 1-.436.173h-6.667a.57.57 0 0 1-.438-.173.56.56 0 0 1-.163-.307l-.01-.132V1.11c0-.188.058-.323.172-.437a.56.56 0 0 1 .308-.163l.131-.01z" stroke="#000"/></svg>